# xmcd CD database file
#
# Track frame offsets:
#	150
#	19180
#	29898
#	42383
#	81215
#	89590
#	106175
#	148435
#	161523
#	172740
#	183835
#	193920
#	205750
#	219618
#	232075
#	245868
#
# Disc length: 3770 seconds
#
# Revision: 3
# Processed by: cddbd v1.5.1PL0 Copyright (c) Steve Scherf et al.
# Submitted via: CDex 1.51
#
DISCID=ed0eb810
DTITLE=Brassissimo Vienna - Viennese Favorites for Brass
DYEAR=1900
DGENRE=Brass
TTITLE0=Johann Strauﬂ Sohn - Maskenball - Quadrille
TTITLE1=Johann Strauﬂ Sohn - Unter Donner und Blitz
TTITLE2=Johann Strauﬂ Sohn - Etwas Kleines
TTITLE3=Johann Strauﬂ Sohn - Kaiserwalzer
TTITLE4=Josef Strauﬂ - Ohne Sorgen
TTITLE5=Johann Strauﬂ Sohn - Annenpolka
TTITLE6=Johann Strauﬂ Sohn - Waldmeister Ouverture
TTITLE7=Josef Strauﬂ - Moulinet - Polka
TTITLE8=Johann Strauﬂ Sohn - Leichtes Blut
TTITLE9=Johann Strauﬂ Sohn - Auf der Jagd
TTITLE10=Johann und Josef Strauﬂ - Pizzikato Polka
TTITLE11=Johann Strauﬂ Sohn - Elyen a Magyar
TTITLE12=Johann Strauﬂ Vater - Radetzkymarsch
TTITLE13=Josef Strauﬂ - Feuerfest
TTITLE14=Johann Strauﬂ Sohn - Perpetuum Mobile
TTITLE15=Johann Strauﬂ Sohn - Fledermaus Ouverture
EXTD=
EXTT0=
EXTT1=
EXTT2=
EXTT3=
EXTT4=
EXTT5=
EXTT6=
EXTT7=
EXTT8=
EXTT9=
EXTT10=
EXTT11=
EXTT12=
EXTT13=
EXTT14=
EXTT15=
PLAYORDER=
